<?xml version="1.0" encoding="utf-8"?>
<!-- Generator: Adobe Illustrator 25.0.0, SVG Export Plug-In . SVG Version: 6.00 Build 0)  -->
<svg version="1.1" id="Calque_1" xmlns="http://www.w3.org/2000/svg" xmlns:xlink="http://www.w3.org/1999/xlink" x="0px" y="0px"
	 viewBox="0 0 1539.2 646.3" style="enable-background:new 0 0 1539.2 646.3;" xml:space="preserve">
<style type="text/css">
	.st0{fill:#FFFFFF;}
</style>
<path class="st0" d="M422,121.9l-58.7,85.7c31.1,34.2,48,79,47.1,125.3c-1.7,87.5-65.3,161.5-151.6,176.3L245,485.7
	c35.4-3.8,68.5-19.4,93.8-44.5c29.9-29.4,46.6-69.7,46.4-111.6c0-36.7-12.9-72.3-36.6-100.4c-3-3.6-6.1-7-9.5-10.3
	c-1.9-2-3.9-3.8-5.9-5.6c-2.1-1.9-4.2-3.7-6.4-5.5c-5.6-4.6-11.6-8.7-17.8-12.5c-2.4-1.4-4.8-2.8-7.3-4.1
	c-6.5-3.5-13.3-6.4-20.2-8.9c-2.8-1-5.5-1.9-8.3-2.7s-5.6-1.6-8.4-2.2l0.4,239.9l-30,25.6l-0.5-269.6c-2.2-0.1-4.3-0.1-6.5-0.1
	c-50.8,0-98.4,24.7-127.7,66.2L86.9,216c33.7-42.1,84.4-67,138.3-68.1c13.7-0.3,27.4,1,40.8,3.8l24.5-35.9l26.3,0
	c0,0.1-0.1,0.2-0.2,0.3L288,157.8c2.7,0.9,5.4,2,8.1,3l37.7-55.2l26.3,0c0,0.1-0.1,0.2-0.2,0.3l-44,64.3c2.5,1.3,4.9,2.8,7.3,4.2
	l29.5-43.2l26.3,0c-0.1,0.1-0.1,0.2-0.2,0.3l-37.8,55.3c2.2,1.8,4.4,3.5,6.5,5.4l48-70.2L422,121.9z M178.4,478.3
	c-7-2.4-13.8-5.2-20.5-8.6c-2.5-1.3-5-2.6-7.4-4c-6.3-3.6-12.3-7.7-18-12.1c-2.2-1.7-4.4-3.5-6.5-5.4c-2.7-2.4-5.4-4.8-8-7.4
	c-2.6-2.6-5.1-5.3-7.7-8.2c-1.9-2.2-3.8-4.4-5.6-6.7c-4.8-6.2-9.1-12.7-13-19.5c-18.1-32.5-24.2-70.4-17-107
	c0.1-0.7,0.3-1.4,0.4-2.1l48.3,82.3h5.9l13.6-25.1l12.1-22.3l36.9-67.9l0.2,131.2l0.1,28.8l25.5,14.8l4.5,3.8l-0.4-197.3l-28.8-0.1
	l-43.3,77.7l-12.3,22l0,0l-49.8-84.8l0,0.1v-0.1l-14.7-25c-2.1,3.4-4.1,6.9-5.9,10.5c-3.6,7-6.8,14.1-9.5,21.5
	c-7.5,20.4-11.2,41.9-11.1,63.6c0.2,34.6,10.3,68.5,29.1,97.5l-58.1,85l26.3,0l45.4-66.5l0.5,0.6c1.6,1.9,3.3,3.8,5,5.7l-37.6,55
	v0.1l26.3,0l27.2-39.8l0.8,0.7c2,1.6,3.9,3.2,6,4.8c-0.2,0.4-0.5,0.8-0.8,1.2l-43.9,64.3l26.3,0l36.3-53.2l0.6,0.4
	c2.4,1.4,4.9,2.8,7.3,4.1l-27.2,39.7c-0.1,0.1-0.2,0.3-0.2,0.4l26.3,0l21.2-31c20.4,7.8,42.1,11.8,64,11.9c2.5,0,5,0,7.5-0.1
	l-14.8-25.3C206,485.6,191.9,482.9,178.4,478.3z M623.5,228.2l-60.3,108.3l-63.1-108l-36.9,0.1l7,12L548,373.5h6.4l67.8-124.9
	l0.3,165.9l32.5-0.1l-0.3-186.1L623.5,228.2z M681.6,233.9l49.9-0.1l0.3,180.5l32.5-0.1L764,233.7l49.9-0.1V228l-132.3,0.2V233.9z
	 M946.3,314c3.3-2.1,6.3-4.5,9-7.2c8.5-8.1,13.3-19.4,13.2-31.1c0-13.3-6.1-25.8-16.6-34c-11.2-9.4-25.4-14.3-39.9-14l-71.2,0.1v5.8
	l44.9-0.1c12.8-0.6,25.4,3.7,35.2,12.1c8.9,7.5,14,18.6,13.7,30.3c0.2,11.6-4.8,22.7-13.6,30.2c-9.7,8.4-22.3,12.7-35.2,12.2
	l-44.9,0.1l0.2,67.4c0,7.8,0,17.2-0.1,28.3L874,414c0-10.9,0.1-20.4,0.1-28.3l-0.1-61.8l25.7,0.1l44.2,89.8l38.8-0.1l-47.1-94.3
	C939.2,317.9,942.8,316.1,946.3,314z M1144.3,227.4l0.4,128.7c1.2,13.6-3.9,27-13.7,36.5c-11,8.6-24.9,12.9-38.9,12
	c-14.1,0.9-28.1-3.4-39.2-12.2c-9.8-9.3-15.1-22.5-14.3-36l-0.2-128.7l-33.1,0.1l0.4,128.7c-1.1,16.9,5.7,33.4,18.5,44.6
	c15.6,11.3,34.7,16.8,53.9,15.6c18.9,1,37.6-4.6,52.9-15.8c13.4-10.8,20.8-27.5,19.9-44.7l-0.4-128.7L1144.3,227.4z M1438.7,294
	l61.6-67.3h-7.6l-87.7,95.5l-0.2-95.3l-32.6,0.1c0.1,11.3,0.2,20.8,0.2,28.7l0.2,128.9c0,7.8,0,17.4-0.2,28.5l32.7-0.1l-0.1-82.5
	l10.5-11.4l67.5,93.8l40.9-0.1L1438.7,294z M1319.7,392.2c-8.2,7.4-18,12.9-28.6,15.9c-5.6,1.7-11.5,2.5-17.4,2.6
	c-11.6-0.2-22.8-4.6-31.4-12.3c-4-3.5-7.7-7.5-10.8-11.9c-4.6-6.4-8.4-13.4-11.3-20.8c-5.6-14.4-8.4-29.8-8.3-45.3
	c-0.2-15.5,2.6-30.8,8.1-45.3c2.9-7.4,6.6-14.4,11.2-20.8c3.1-4.3,6.7-8.3,10.8-11.9c8.6-7.8,19.8-12.2,31.4-12.5
	c5.9,0,11.7,0.9,17.4,2.5c10.6,3,20.5,8.4,28.7,15.8c8.9,7.9,15.6,18.1,19.4,29.4l6.7-4.9c-3.9-9.5-9.5-18.1-16.4-25.7
	c-4.5-4.8-9.6-8.9-15.2-12.3c-2.8-1.7-5.8-3.3-8.8-4.6c-1-0.4-2-0.8-3.1-1.2c-6.9-2.5-14.1-4-21.4-4.5l-1.5-0.1l-1.8-0.1
	c-1.3,0-2.5-0.1-3.8-0.1c-1.1,0-2.2,0-3.3,0.1c-15.8,0.4-31.3,4.8-44.9,12.9c-14.3,8.5-26.3,20.4-34.7,34.8
	c-8.1,13.6-12.5,29.2-12.9,45c0,1.1,0,2.2,0,3.3s0,2.2,0.1,3.3c0.4,15.9,4.9,31.4,13,45c8.5,14.3,20.4,26.2,34.8,34.7
	c13.6,8.1,29.1,12.4,45,12.8c1.1,0,2.2,0,3.3,0c1.3,0,2.5,0,3.8-0.1c0.6,0,1.2-0.1,1.8-0.1l1.5-0.1c7.3-0.5,14.5-2,21.4-4.6
	c1.1-0.4,2.1-0.8,3.1-1.2c3.1-1.3,6-2.8,8.8-4.6c5.6-3.4,10.7-7.5,15.1-12.3c6.9-7.6,12.4-16.3,16.3-25.7l-6.7-4.9
	C1335.3,374,1328.6,384.2,1319.7,392.2z"/>
</svg>
