<?xml version="1.0" encoding="utf-8"?>
<!-- Generator: Adobe Illustrator 25.0.0, SVG Export Plug-In . SVG Version: 6.00 Build 0)  -->
<svg version="1.1" id="Calque_1" xmlns="http://www.w3.org/2000/svg" xmlns:xlink="http://www.w3.org/1999/xlink" x="0px" y="0px"
	 viewBox="0 0 1439.9 1766.5" style="enable-background:new 0 0 1439.9 1766.5;" xml:space="preserve">
<path d="M1200.6,485.8C1307.4,602.1,1367.1,756,1364,916.2c-6.3,301.6-223.1,556.1-521.5,606.3l-47.1-81.7
	c122.5-12.6,235.6-69.1,323.6-153.9c103.7-100.5,160.2-238.8,160.2-383.3c0-125.7-44-248.2-125.7-345.6c-9.4-12.6-18.9-22-31.4-34.6
	c-6.3-6.3-12.6-12.6-18.8-18.8c-6.3-6.3-15.7-12.6-22-18.9c-22-15.7-40.8-31.4-62.8-44c-9.4-6.3-15.7-12.6-25.1-15.7
	c-22-12.6-44-22-69.1-31.4c-9.4-3.1-18.9-9.4-28.3-9.4c-9.4,0-18.8-3.1-28.3-6.3v826.3l-103.7,88l-3.1-929.9c-6.3,0-15.7,0-22,0
	c-175.9,0-339.3,88-439.8,229.3L251.8,511C368.1,363.3,544,278.5,729.4,275.3c47.1,0,94.3,3.1,141.4,12.6l84.8-122.5h91.1
	l-97.4,144.5c9.4,3.1,18.9,6.3,28.3,9.4l128.8-188.5h91.1l-150.8,223.1c9.4,6.3,15.7,9.4,25.1,15.7l100.5-147.7h91.1l-128.8,191.6
	c6.3,6.3,15.7,12.6,22,18.9l166.5-241.9h91.1L1200.6,485.8z M575.4,1415.8c-25.1-9.4-47.1-18.8-69.1-28.3
	c-9.4-3.1-15.7-9.4-25.1-12.6c-22-12.6-40.8-25.1-62.8-40.8c-6.3-6.3-15.7-12.6-22-18.8c-9.4-9.4-18.9-15.7-28.3-25.1
	s-18.8-18.8-25.1-28.3c-6.3-6.3-12.6-15.7-18.9-22c-15.7-22-31.4-44-44-66c-62.8-113.1-81.7-241.9-59.7-367.6c0-3.1,0-6.3,0-6.3
	l166.5,282.8h18.9l47.1-84.8l40.8-75.4L619.4,690v452.4V1243l88,50.3l15.7,12.6V627.2H622.5l-147.7,267L434,969.7L264.4,677.5
	l-50.3-84.8c-6.3,12.6-12.6,25.1-18.9,34.6c-12.6,25.1-22,50.3-31.4,75.4c-25.1,69.1-37.7,144.5-37.7,219.9
	c0,119.4,34.6,235.6,100.5,336.2l-201,292.1h91.1l157.1-229.3l3.1,3.1c6.3,6.3,12.6,12.6,18.9,18.8L167,1532h91.1l94.2-138.2
	l3.1,3.1c6.3,6.3,12.6,12.6,22,15.7l-3.1,3.1l-150.8,219.9h91.1l125.7-182.2h3.1c9.4,6.3,15.7,9.4,25.1,12.6l-94.3,138.2h91.1
	l72.3-106.8c69.1,28.3,144.5,40.8,219.9,40.8c9.4,0,15.7,0,25.1,0l-62.8-94.3C669.7,1440.9,622.5,1431.5,575.4,1415.8z"/>
</svg>
